<svg id="icons8-multiple-stars" xmlns="http://www.w3.org/2000/svg" width="17.428" height="16" viewBox="0 0 17.428 16">
  <path id="Path_1" data-name="Path 1" d="M7.32,9.406a.763.763,0,0,0-1.35,0L4.69,11.822a.206.206,0,0,1-.148.106L1.849,12.4a.763.763,0,0,0-.418,1.283l1.9,1.965a.216.216,0,0,1,.048.08.206.206,0,0,1,.008.094L3,18.528a.764.764,0,0,0,1.092.794l2.455-1.2a.228.228,0,0,1,.094-.021.209.209,0,0,1,.091.021l2.455,1.2a.764.764,0,0,0,1.092-.794L9.9,15.822a.207.207,0,0,1,.008-.094.2.2,0,0,1,.048-.08l1.9-1.965A.763.763,0,0,0,11.44,12.4l-2.693-.472a.223.223,0,0,1-.086-.036.209.209,0,0,1-.062-.07Z" transform="translate(5.355 -3.4)" fill="#e9ecef" fill-rule="evenodd"/>
  <path id="Path_2" data-name="Path 2" d="M13.629,2.218a.411.411,0,0,0-.726,0l-.69,1.3a.117.117,0,0,1-.033.038.1.1,0,0,1-.046.019l-1.45.254a.412.412,0,0,0-.224.692L11.485,5.58a.115.115,0,0,1,.026.043.119.119,0,0,1,0,.05l-.206,1.458a.411.411,0,0,0,.588.427l1.322-.646a.089.089,0,0,1,.046-.012.121.121,0,0,1,.05.011l1.322.646a.411.411,0,0,0,.588-.427L15.02,5.673a.108.108,0,0,1,0-.05.105.105,0,0,1,.026-.043l1.024-1.058a.412.412,0,0,0-.224-.692L14.4,3.576a.119.119,0,0,1-.046-.019.117.117,0,0,1-.033-.038Z" transform="translate(-6.065 -2)" fill="#e9ecef" fill-rule="evenodd"/>
  <path id="Path_3" data-name="Path 3" d="M19.7,9.306a.338.338,0,0,0-.6,0l-.566,1.068a.086.086,0,0,1-.027.031.091.091,0,0,1-.038.016l-1.19.209a.337.337,0,0,0-.185.567l.841.869a.107.107,0,0,1,.022.035.1.1,0,0,1,0,.042l-.17,1.2a.338.338,0,0,0,.483.351l1.086-.531a.089.089,0,0,1,.04-.01.1.1,0,0,1,.041.009l1.086.531a.338.338,0,0,0,.483-.351l-.17-1.2a.083.083,0,0,1,0-.042.084.084,0,0,1,.022-.035l.841-.869a.336.336,0,0,0,.078-.339.339.339,0,0,0-.263-.228l-1.19-.209a.1.1,0,0,1-.038-.016.093.093,0,0,1-.027-.031Z" transform="translate(-16.998 -3.425)" fill="#b3c1c8" fill-rule="evenodd"/>
</svg>
