<svg xmlns="http://www.w3.org/2000/svg" width="17.428" height="16" viewBox="0 0 17.428 16">
  <g id="icons8-multiple-stars" transform="translate(-1.216 -2)">
    <path id="Path_1" data-name="Path 1" d="M5.969,9.406a.763.763,0,0,1,1.35,0L8.6,11.822a.206.206,0,0,0,.148.106l2.693.472a.763.763,0,0,1,.418,1.283l-1.9,1.965a.216.216,0,0,0-.048.08.206.206,0,0,0-.008.094l.383,2.707a.764.764,0,0,1-1.092.794l-2.455-1.2a.228.228,0,0,0-.094-.021.209.209,0,0,0-.091.021L4.1,19.322A.764.764,0,0,1,3,18.528l.383-2.707a.207.207,0,0,0-.008-.094.2.2,0,0,0-.048-.08l-1.9-1.965A.763.763,0,0,1,1.849,12.4l2.693-.472a.223.223,0,0,0,.086-.036.209.209,0,0,0,.062-.07Z" transform="translate(0 -1.4)" fill="#e9ecef" fill-rule="evenodd"/>
    <path id="Path_2" data-name="Path 2" d="M12.906,2.218a.411.411,0,0,1,.726,0l.69,1.3a.117.117,0,0,0,.033.038.1.1,0,0,0,.046.019l1.45.254a.412.412,0,0,1,.224.692L15.051,5.58a.115.115,0,0,0-.026.043.119.119,0,0,0,0,.05l.206,1.458a.411.411,0,0,1-.588.427l-1.322-.646a.089.089,0,0,0-.046-.012.121.121,0,0,0-.05.011L11.9,7.558a.411.411,0,0,1-.588-.427l.206-1.458a.108.108,0,0,0,0-.05.105.105,0,0,0-.026-.043L10.46,4.522a.412.412,0,0,1,.224-.692l1.45-.254a.119.119,0,0,0,.046-.019.117.117,0,0,0,.033-.038Z" transform="translate(-1.825)" fill="#e9ecef" fill-rule="evenodd"/>
    <path id="Path_3" data-name="Path 3" d="M19.1,9.306a.338.338,0,0,1,.6,0l.566,1.068a.086.086,0,0,0,.027.031.091.091,0,0,0,.038.016l1.19.209a.337.337,0,0,1,.185.567l-.841.869a.107.107,0,0,0-.022.035.1.1,0,0,0,0,.042l.17,1.2a.338.338,0,0,1-.483.351l-1.086-.531a.089.089,0,0,0-.04-.01.1.1,0,0,0-.041.009l-1.086.531a.338.338,0,0,1-.483-.351l.17-1.2a.083.083,0,0,0,0-.042.084.084,0,0,0-.022-.035l-.841-.869a.336.336,0,0,1-.078-.339.339.339,0,0,1,.263-.228l1.19-.209a.1.1,0,0,0,.038-.016.093.093,0,0,0,.027-.031Z" transform="translate(-3.156 -1.425)" fill="#b3c1c8" fill-rule="evenodd"/>
  </g>
</svg>
